<svg width="15" height="16" viewBox="0 0 15 16" fill="none" xmlns="http://www.w3.org/2000/svg">
<path d="M11.4875 11.4561C12.1475 10.8363 12.6726 10.0916 13.0312 9.26718C13.3898 8.44273 13.5744 7.55555 13.5739 6.65916C13.5739 5.3421 13.1759 4.05462 12.4301 2.95953C11.6844 1.86444 10.6244 1.01092 9.38423 0.506901C8.14408 0.0028853 6.77944 -0.128988 5.4629 0.127957C4.14636 0.384902 2.93703 1.01913 1.98786 1.95043C1.03869 2.88172 0.392289 4.06827 0.130413 5.36002C-0.131464 6.65177 0.00294068 7.99071 0.51663 9.20751C1.03032 10.4243 1.90022 11.4643 3.01633 12.196C4.13244 12.9278 5.44464 13.3183 6.78697 13.3183C8.26549 13.3184 9.70316 12.8423 10.8791 11.963L14.3932 16L15 15.4916L11.4875 11.4561ZM6.78697 12.5349C3.48451 12.5349 0.79847 9.89943 0.79847 6.65916C0.79847 3.41889 3.48451 0.783433 6.78697 0.783433C10.0894 0.783433 12.7755 3.41889 12.7755 6.65916C12.7755 9.89943 10.0894 12.5349 6.78697 12.5349Z" fill="#767676"/>
</svg>
