<svg width="14" height="12" viewBox="0 0 14 12" fill="none" xmlns="http://www.w3.org/2000/svg">
<mask id="path-1-inside-1" fill="white">
<path d="M7.98344 0.280029L7.59623 0.797485L12.5051 5.64982H0.23999V6.33248H12.5057L7.59564 11.2026L7.98403 11.72L13.76 5.98979L7.98344 0.280029Z"/>
</mask>
<path d="M7.98344 0.280029L7.59623 0.797485L12.5051 5.64982H0.23999V6.33248H12.5057L7.59564 11.2026L7.98403 11.72L13.76 5.98979L7.98344 0.280029Z" fill="#767676"/>
<path d="M7.98344 0.280029L8.68642 -0.431177L7.87029 -1.23787L7.18278 -0.31909L7.98344 0.280029ZM7.59623 0.797485L6.79557 0.198366L6.27349 0.896075L6.89324 1.50868L7.59623 0.797485ZM12.5051 5.64982V6.64982H14.9393L13.2081 4.93863L12.5051 5.64982ZM0.23999 5.64982V4.64982H-0.76001V5.64982H0.23999ZM0.23999 6.33248H-0.76001V7.33248H0.23999V6.33248ZM12.5057 6.33248L13.21 7.04248L14.934 5.33248H12.5057V6.33248ZM7.59564 11.2026L6.89143 10.4926L6.27288 11.1061L6.79586 11.8029L7.59564 11.2026ZM7.98403 11.72L7.18425 12.3203L7.87337 13.2384L8.68832 12.4299L7.98403 11.72ZM13.76 5.98979L14.4643 6.6997L15.1812 5.98848L14.463 5.27858L13.76 5.98979ZM7.18278 -0.31909L6.79557 0.198366L8.39689 1.3966L8.7841 0.879148L7.18278 -0.31909ZM6.89324 1.50868L11.8022 6.36102L13.2081 4.93863L8.29923 0.0862917L6.89324 1.50868ZM12.5051 4.64982H0.23999V6.64982H12.5051V4.64982ZM-0.76001 5.64982V6.33248H1.23999V5.64982H-0.76001ZM0.23999 7.33248H12.5057V5.33248H0.23999V7.33248ZM11.8015 5.62249L6.89143 10.4926L8.29985 11.9126L13.21 7.04248L11.8015 5.62249ZM6.79586 11.8029L7.18425 12.3203L8.78381 11.1197L8.39542 10.6023L6.79586 11.8029ZM8.68832 12.4299L14.4643 6.6997L13.0557 5.27988L7.27974 11.0101L8.68832 12.4299ZM14.463 5.27858L8.68642 -0.431177L7.28045 0.991236L13.057 6.701L14.463 5.27858Z" fill="black" mask="url(#path-1-inside-1)"/>
</svg>
