<svg width="250" height="250" viewBox="0 0 250 250" fill="none" xmlns="http://www.w3.org/2000/svg">
<rect width="250" height="250" fill="#C2C2C2"/>
<path fill-rule="evenodd" clip-rule="evenodd" d="M152 104V146C152 149.3 149.3 152 146 152H104C100.7 152 98 149.3 98 146V104C98 100.7 100.7 98 104 98H146C149.3 98 152 100.7 152 104ZM122 138.53L115.7 130.94C115.07 130.19 113.93 130.22 113.36 131L105.89 140.6C105.11 141.59 105.8 143.03 107.06 143.03H143.03C144.26 143.03 144.98 141.62 144.23 140.63L133.7 126.59C133.1 125.78 131.9 125.78 131.3 126.56L122 138.53Z" fill="#959696"/>
</svg>
