<svg width="564" height="564" viewBox="0 0 564 564" fill="none" xmlns="http://www.w3.org/2000/svg">
<rect width="564" height="564" fill="#C2C2C2"/>
<path fill-rule="evenodd" clip-rule="evenodd" d="M309 261V303C309 306.3 306.3 309 303 309H261C257.7 309 255 306.3 255 303V261C255 257.7 257.7 255 261 255H303C306.3 255 309 257.7 309 261ZM279 295.53L272.7 287.94C272.07 287.19 270.93 287.22 270.36 288L262.89 297.6C262.11 298.59 262.8 300.03 264.06 300.03H300.03C301.26 300.03 301.98 298.62 301.23 297.63L290.7 283.59C290.1 282.78 288.9 282.78 288.3 283.56L279 295.53Z" fill="#959696"/>
</svg>
