<svg width="26" height="26" viewBox="0 0 26 26" fill="none" xmlns="http://www.w3.org/2000/svg">
<circle cx="13" cy="13" r="12.5" fill="white" stroke="black"/>
<mask id="path-2-inside-1_604:189" fill="white">
<path d="M13.9834 7.28003L13.5962 7.79748L18.5051 12.6498H6.23999V13.3325H18.5057L13.5956 18.2026L13.984 18.72L19.76 12.9898L13.9834 7.28003Z"/>
</mask>
<path d="M13.9834 7.28003L13.5962 7.79748L18.5051 12.6498H6.23999V13.3325H18.5057L13.5956 18.2026L13.984 18.72L19.76 12.9898L13.9834 7.28003Z" fill="#767676"/>
<path d="M13.9834 7.28003L14.6864 6.56882L13.8703 5.76213L13.1828 6.68091L13.9834 7.28003ZM13.5962 7.79748L12.7956 7.19837L12.2735 7.89607L12.8932 8.50868L13.5962 7.79748ZM18.5051 12.6498V13.6498H20.9393L19.2081 11.9386L18.5051 12.6498ZM6.23999 12.6498V11.6498H5.23999V12.6498H6.23999ZM6.23999 13.3325H5.23999V14.3325H6.23999V13.3325ZM18.5057 13.3325L19.21 14.0425L20.934 12.3325H18.5057V13.3325ZM13.5956 18.2026L12.8914 17.4926L12.2729 18.1061L12.7959 18.8029L13.5956 18.2026ZM13.984 18.72L13.1843 19.3203L13.8734 20.2384L14.6883 19.4299L13.984 18.72ZM19.76 12.9898L20.4643 13.6997L21.1812 12.9885L20.463 12.2786L19.76 12.9898ZM13.1828 6.68091L12.7956 7.19837L14.3969 8.3966L14.7841 7.87915L13.1828 6.68091ZM12.8932 8.50868L17.8022 13.361L19.2081 11.9386L14.2992 7.08629L12.8932 8.50868ZM18.5051 11.6498H6.23999V13.6498H18.5051V11.6498ZM5.23999 12.6498V13.3325H7.23999V12.6498H5.23999ZM6.23999 14.3325H18.5057V12.3325H6.23999V14.3325ZM17.8015 12.6225L12.8914 17.4926L14.2998 18.9126L19.21 14.0425L17.8015 12.6225ZM12.7959 18.8029L13.1843 19.3203L14.7838 18.1197L14.3954 17.6023L12.7959 18.8029ZM14.6883 19.4299L20.4643 13.6997L19.0557 12.2799L13.2797 18.0101L14.6883 19.4299ZM20.463 12.2786L14.6864 6.56882L13.2805 7.99124L19.057 13.701L20.463 12.2786Z" fill="black" mask="url(#path-2-inside-1_604:189)"/>
</svg>
