<svg width="64" height="64" viewBox="0 0 64 64" fill="none" xmlns="http://www.w3.org/2000/svg">
<path d="M63.5 32C63.5 49.397 49.397 63.5 32 63.5C14.603 63.5 0.5 49.397 0.5 32C0.5 14.603 14.603 0.5 32 0.5C49.397 0.5 63.5 14.603 63.5 32Z" fill="#DBDBDB" stroke="#333333"/>
<path d="M46 32C46 39.732 39.732 46 32 46C24.268 46 18 39.732 18 32C18 24.268 24.268 18 32 18C39.732 18 46 24.268 46 32Z" fill="#333333"/>
<path d="M5.30615 32.1424L15.319 33.9899L15.571 32.5502L8.32054 31.2124L8.33683 31.1193L16.0905 29.4966L16.2997 28.3017L9.5866 24.0096L9.60289 23.9166L16.8485 25.2535L17.1005 23.8137L7.08775 21.9662L6.76624 23.8027L13.9906 28.4317L13.97 28.5492L5.62766 30.306L5.30615 32.1424Z" fill="#333333"/>
<path d="M18.2065 17.5487C19.1917 18.3931 19.0398 19.5361 18.5042 20.1771C17.9145 20.8829 17.0023 20.9357 16.2159 20.2566L12.6754 17.1986L11.7223 18.3393L15.3983 21.5143C16.8318 22.7524 18.243 22.5985 19.1834 21.473C19.9197 20.5917 19.9612 19.5963 19.5705 18.7925L19.6215 18.7314L20.6223 19.5959L21.5595 18.4742L15.7803 13.4827L14.824 14.6273L18.2065 17.5487Z" fill="#333333"/>
<path d="M24.7993 9.94275C23.9974 9.01748 22.8245 8.74353 21.353 9.49119C19.815 10.2726 19.1282 11.642 19.7281 12.8539C20.2089 13.8253 21.1138 14.1741 22.5314 13.8107L23.8095 13.4791C24.5383 13.2928 24.9897 13.4315 25.2014 13.8593C25.4638 14.3895 25.106 15.0899 24.2373 15.5313C23.4439 15.9344 22.7644 15.8503 22.2718 15.2585L21.0879 16.1054C21.9094 17.2047 23.2486 17.3775 24.7777 16.6006C26.4221 15.7651 27.1267 14.3085 26.5136 13.0699C26.035 12.103 25.1278 11.8167 23.7345 12.1622L22.5296 12.4622C21.6923 12.6645 21.243 12.5749 21.0181 12.1093C20.7534 11.5858 21.1355 10.9233 21.889 10.5404C22.7134 10.1215 23.3217 10.3868 23.704 10.7669L24.7993 9.94275Z" fill="#333333"/>
<path d="M28.4844 14.9711L29.947 14.7056L28.598 7.18931L27.1353 7.45481L28.4844 14.9711ZM27.6658 6.16099C28.1697 6.06953 28.5201 5.6017 28.434 5.12214C28.3479 4.64259 27.8561 4.32259 27.3523 4.41405C26.8435 4.5064 26.4989 4.97824 26.585 5.45779C26.671 5.93734 27.1571 6.25334 27.6658 6.16099Z" fill="#333333"/>
<path d="M34.3994 14.8154C36.1925 15.0193 37.4681 14.0737 37.7884 12.6141L36.351 12.4505C36.0759 13.2498 35.3871 13.6618 34.5424 13.5657C33.2927 13.4236 32.5985 12.2889 32.7748 10.6327C32.948 9.00628 33.8769 8.07622 35.1119 8.21671C36.0504 8.32347 36.5603 8.98189 36.6426 9.71176L38.08 9.87528C38.0851 8.32476 36.9438 7.16421 35.2198 6.96809C33.0809 6.72478 31.5262 8.17908 31.2794 10.4976C31.0357 12.7866 32.1963 14.5647 34.3994 14.8154Z" fill="#333333"/>
<path d="M40.4746 16.3779L41.5698 17.3308L42.335 16.4217L42.4287 16.5033C42.3175 17.0523 42.1826 18.0616 43.2328 18.9754C44.6281 20.1893 46.5948 19.937 48.186 18.0466C49.7805 16.1525 49.6908 14.144 48.2993 12.9333C47.2304 12.0032 46.287 12.3289 45.784 12.5173L45.7165 12.4586L48.153 9.56413L47.0315 8.5884L40.4746 16.3779ZM44.0324 14.413C45.0601 13.1921 46.2672 12.8388 47.2461 13.6905C48.2625 14.5749 48.0394 15.8897 47.0629 17.0497C46.0768 18.2212 44.7994 18.6581 43.7979 17.7868C42.834 16.9482 42.9983 15.6415 44.0324 14.413Z" fill="#333333"/>
<path d="M46.976 24.041C47.8731 25.9978 49.8856 26.6061 52.0226 25.6012C54.1732 24.59 55.013 22.6404 54.1159 20.6835C53.2187 18.7267 51.2062 18.1184 49.0557 19.1296C46.9187 20.1345 46.0788 22.0841 46.976 24.041ZM48.1073 23.5145C47.5209 22.2355 48.3587 21.1164 49.6859 20.4923C51.0086 19.8703 52.4068 19.938 52.9932 21.217C53.5754 22.4869 52.7241 23.6123 51.4014 24.2343C50.0742 24.8584 48.6895 24.7844 48.1073 23.5145Z" fill="#333333"/>
<path d="M56.3974 28.7718L56.3491 27.1419L52.6018 29.5893L48.7146 27.3158L48.7629 28.9458L51.6664 30.5841L48.8646 32.3796L48.9128 34.0046L52.6585 31.5025L56.5458 33.781L56.4977 32.156L53.4754 30.5358L56.3974 28.7718Z" fill="#333333"/>
</svg>
