<svg width="56" height="56" viewBox="0 0 56 56" fill="none" xmlns="http://www.w3.org/2000/svg">
<circle cx="28" cy="28" r="27.5" fill="#DBDBDB" stroke="#333333"/>
<path fill-rule="evenodd" clip-rule="evenodd" d="M33.3333 22.6668C33.3333 25.6135 30.9466 28.0002 28 28.0002C25.0533 28.0002 22.6666 25.6135 22.6666 22.6668C22.6666 19.7202 25.0533 17.3335 28 17.3335C30.9466 17.3335 33.3333 19.7202 33.3333 22.6668ZM17.3333 36.0002C17.3333 32.4535 24.44 30.6668 28 30.6668C31.56 30.6668 38.6666 32.4535 38.6666 36.0002V37.3335C38.6666 38.0668 38.0666 38.6668 37.3333 38.6668H18.6666C17.9333 38.6668 17.3333 38.0668 17.3333 37.3335V36.0002Z" fill="#959696"/>
</svg>
