<svg width="564" height="564" viewBox="0 0 564 564" fill="none" xmlns="http://www.w3.org/2000/svg">
<path fill-rule="evenodd" clip-rule="evenodd" d="M309 252V294C309 297.3 306.3 300 303 300H261C257.7 300 255 297.3 255 294V252C255 248.7 257.7 246 261 246H303C306.3 246 309 248.7 309 252ZM279 286.53L272.7 278.94C272.07 278.19 270.93 278.22 270.36 279L262.89 288.6C262.11 289.59 262.8 291.03 264.06 291.03H300.03C301.26 291.03 301.98 289.62 301.23 288.63L290.7 274.59C290.1 273.78 288.9 273.78 288.3 274.56L279 286.53Z" fill="#959696"/>
</svg>
