<svg width="266" height="266" viewBox="0 0 266 266" fill="none" xmlns="http://www.w3.org/2000/svg">
<rect width="266" height="266" fill="#C2C2C2"/>
<path fill-rule="evenodd" clip-rule="evenodd" d="M133 93C143.92 93 153.01 100.77 155.05 111.12C162.85 111.66 169 118.08 169 126C169 134.28 162.28 141 154 141H115C105.07 141 97 132.93 97 123C97 113.73 104.02 106.08 113.05 105.12C116.8 97.92 124.33 93 133 93ZM139 132V120H148L134.08 106.05C133.48 105.45 132.55 105.45 131.95 106.05L118 120H127V132H139Z" fill="#959696"/>
<path d="M113.761 159.364V166.875C113.761 168.455 112.67 169.591 110.898 169.591C109.131 169.591 108.034 168.455 108.034 166.875V159.364H106.278V167.017C106.278 169.46 108.108 171.193 110.898 171.193C113.688 171.193 115.523 169.46 115.523 167.017V159.364H113.761ZM117.939 174.273H119.638V169.642H119.74C120.047 170.199 120.672 171.17 122.263 171.17C124.376 171.17 125.911 169.477 125.911 166.653C125.911 163.824 124.354 162.159 122.246 162.159C120.626 162.159 120.041 163.148 119.74 163.688H119.598V162.273H117.939V174.273ZM119.604 166.636C119.604 164.812 120.399 163.602 121.882 163.602C123.422 163.602 124.195 164.903 124.195 166.636C124.195 168.386 123.399 169.722 121.882 169.722C120.422 169.722 119.604 168.472 119.604 166.636ZM129.513 159.364H127.814V171H129.513V159.364ZM135.474 171.176C137.935 171.176 139.543 169.375 139.543 166.676C139.543 163.96 137.935 162.159 135.474 162.159C133.014 162.159 131.406 163.96 131.406 166.676C131.406 169.375 133.014 171.176 135.474 171.176ZM135.48 169.75C133.872 169.75 133.122 168.347 133.122 166.67C133.122 165 133.872 163.58 135.48 163.58C137.077 163.58 137.827 165 137.827 166.67C137.827 168.347 137.077 169.75 135.48 169.75ZM143.979 171.193C145.422 171.193 146.234 170.46 146.558 169.807H146.626V171H148.286V165.205C148.286 162.665 146.286 162.159 144.899 162.159C143.32 162.159 141.865 162.795 141.297 164.386L142.893 164.75C143.143 164.131 143.78 163.534 144.922 163.534C146.018 163.534 146.581 164.108 146.581 165.097V165.136C146.581 165.756 145.945 165.744 144.376 165.926C142.723 166.119 141.03 166.551 141.03 168.534C141.03 170.25 142.32 171.193 143.979 171.193ZM144.348 169.83C143.388 169.83 142.695 169.398 142.695 168.557C142.695 167.648 143.501 167.324 144.484 167.193C145.036 167.119 146.342 166.972 146.587 166.727V167.852C146.587 168.886 145.763 169.83 144.348 169.83ZM153.815 171.17C155.406 171.17 156.031 170.199 156.338 169.642H156.48V171H158.139V159.364H156.44V163.688H156.338C156.031 163.148 155.452 162.159 153.827 162.159C151.719 162.159 150.168 163.824 150.168 166.653C150.168 169.477 151.696 171.17 153.815 171.17ZM154.19 169.722C152.673 169.722 151.884 168.386 151.884 166.636C151.884 164.903 152.656 163.602 154.19 163.602C155.673 163.602 156.469 164.812 156.469 166.636C156.469 168.472 155.656 169.722 154.19 169.722Z" fill="black" fill-opacity="0.5"/>
</svg>
